<svg width="128" height="128" viewBox="0 0 128 128" fill="none" xmlns="http://www.w3.org/2000/svg">
  <circle cx="64" cy="64" r="56" fill="#E9722E"/>
  <g fill="#FFF4E8">
    <rect x="28" y="35" width="8" height="50" rx="4"/>
    <rect x="28" y="35" width="24" height="8" rx="4"/>
    <rect x="38" y="35" width="6" height="22" rx="3" fill="#E9722E"/>
    <rect x="46" y="35" width="6" height="22" rx="3" fill="#E9722E"/>
    <rect x="54" y="35" width="8" height="50" rx="4"/>
    <path d="M84 34C75 34 69 40 69 47C69 53 72 57 78 61L69 69V82C69 84.8 71.2 87 74 87C76.8 87 79 84.8 79 82V72L87 64V87H95V34H84Z"/>
  </g>
</svg>
